<?xml version="1.0" encoding="UTF-8"?>
<!DOCTYPE svg PUBLIC "-//W3C//DTD SVG 1.1//EN" "http://www.w3.org/Graphics/SVG/1.1/DTD/svg11.dtd">
<!-- Creator: CorelDRAW 2018 (64 Bit Versão de avaliação) -->
<svg xmlns="http://www.w3.org/2000/svg" xml:space="preserve" width="9.9697mm" height="11.3635mm" version="1.1" style="shape-rendering:geometricPrecision; text-rendering:geometricPrecision; image-rendering:optimizeQuality; fill-rule:evenodd; clip-rule:evenodd"
viewBox="0 0 121.13 138.06"
 xmlns:xlink="http://www.w3.org/1999/xlink">
 <defs>
  <style type="text/css">
   <![CDATA[
    .str0 {stroke:black;stroke-width:2.43;stroke-miterlimit:22.9256}
    .fil0 {fill:black}
    .fil1 {fill:white}
   ]]>
  </style>
 </defs>
 <g id="Camada_x0020_1">
  <metadata id="CorelCorpID_0Corel-Layer"/>
  <g id="_2190047857296">
   <path class="fil0" d="M9.46 123.19c1.07,5.77 -3.34,14.87 14.68,14.87l73.06 0c10.2,0 15.37,-5.49 15.37,-15.12l0 -88.68 -103.8 0 0.69 88.93z"/>
   <path class="fil0" d="M36.98 8.31c-10.46,0 -23,-0.56 -33,0.26 -3.24,0.26 -3.81,3.03 -3.79,5.78 0.02,3.18 -0.66,6.41 0.42,8.91 1.25,2.9 3.04,2.62 6.9,2.67 1.56,0.02 2.64,0.27 4.52,0.26l87.42 -0.25c5.19,0 9.54,0.27 14.62,0.26 6.04,-0.01 6.94,-2.04 7.05,-6.57l0 -4.33c-0.02,-8.24 -3.36,-7 -14.86,-7 -7.31,0 -14.61,0 -21.92,0 -1.17,-2.21 -2.91,-8.31 -7.56,-8.31l-32.5 0c-4.16,0 -5.76,5.4 -7.31,8.31z"/>
   <path class="fil1 str0" d="M56.31 55.74c0.49,-2.73 2.87,-3.81 4.3,-3.81 1.4,0 3.71,1.03 4.21,3.81 0,19.96 0,39.92 0,59.89 -0.56,3.81 -2.84,4.71 -4.34,4.77 -2.08,0.09 -4.17,-1.96 -4.17,-4.77 0,-19.96 0,-39.92 0,-59.89z"/>
   <path class="fil1 str0" d="M31.2 55.74c0.49,-2.73 2.87,-3.81 4.3,-3.81 1.4,0 3.7,1.03 4.21,3.81 0,19.96 0,39.92 0,59.89 -0.56,3.81 -2.84,4.71 -4.34,4.77 -2.08,0.09 -4.17,-1.96 -4.17,-4.77 0,-19.96 0,-39.92 0,-59.89z"/>
   <path class="fil1 str0" d="M81.41 55.74c0.49,-2.73 2.87,-3.81 4.3,-3.81 1.4,0 3.7,1.03 4.21,3.81 0,19.96 0,39.92 0,59.89 -0.56,3.81 -2.84,4.71 -4.34,4.77 -2.08,0.09 -4.17,-1.96 -4.17,-4.77 0,-19.96 0,-39.92 0,-59.89z"/>
  </g>
 </g>
</svg>
