<?xml version="1.0" encoding="UTF-8"?>
<!DOCTYPE svg PUBLIC "-//W3C//DTD SVG 1.1//EN" "http://www.w3.org/Graphics/SVG/1.1/DTD/svg11.dtd">
<!-- Creator: CorelDRAW 2018 (64 Bit Versão de avaliação) -->
<svg xmlns="http://www.w3.org/2000/svg" xml:space="preserve" width="12.8411mm" height="11.3842mm" version="1.1" style="shape-rendering:geometricPrecision; text-rendering:geometricPrecision; image-rendering:optimizeQuality; fill-rule:evenodd; clip-rule:evenodd"
viewBox="0 0 200.95 178.15"
 xmlns:xlink="http://www.w3.org/1999/xlink">
 <defs>
  <style type="text/css">
   <![CDATA[
    .fil0 {fill:black}
   ]]>
  </style>
 </defs>
 <g id="Camada_x0020_1">
  <metadata id="CorelCorpID_0Corel-Layer"/>
  <g id="_2190045129536">
   <path class="fil0" d="M-0 39.41l0 122.13c0,2.24 0.62,4.7 1.24,6.25 0.85,2.11 1.76,3.24 2.99,4.83 1.47,1.9 4.31,3.92 6.77,4.63 0.81,0.23 2.18,0.9 3,0.9l127.67 0c5.68,0 11.21,-5.09 13.45,-10.32 0.84,-1.95 1.2,-4.27 1.2,-6.94l0 -55.04c0,-0.85 -2.1,-3.58 -3.91,-3.58 -3.25,0 -6.95,4.83 -10.18,8.06 -1.19,1.19 -8.71,8.09 -8.71,9.85l0 35.5 -110.73 0 0 -110.73 79.14 0c3.18,0 7.52,-5.4 10.18,-8.06 1.62,-1.62 8.71,-7.97 8.71,-9.85 0,-2.52 -1.89,-4.89 -4.23,-4.89l-101.94 0c-1.15,0 -4.8,1.55 -5.76,2.06 -4.69,2.5 -8.9,8.54 -8.9,15.2z"/>
   <path class="fil0" d="M62.21 144.93c3.83,0 16.73,-1.86 21.81,-2.29l10.83 -1.22c1.93,-0.34 1.25,-0.25 3.43,-2.43l63.34 -63.34c14.4,-14.4 14.42,-11.15 3.42,-22.15l-17.59 -17.59c-9.7,-9.7 -8.06,-10.99 -16.45,-2.61l-64.32 64.32c-2.29,2.29 -4.04,4.4 -6.37,6.66 -1.28,1.24 -1.25,1.96 -1.37,4.82l-2.62 23.43c-0.61,4.19 -1.49,7.28 1.39,10.38 0.94,1.01 2.68,2.02 4.49,2.02z"/>
   <path class="fil0" d="M147.21 18.56c0,2.7 1.71,3.51 3.66,5.46 1.55,1.54 2.85,2.85 4.4,4.4l17.26 17.26c11.01,11.01 8.01,11.04 20.68,-1.63 3.19,-3.19 7.01,-6.94 7.74,-11.74l0 -3.24c-0.2,-1.33 -0.64,-2.74 -1.4,-4.22 -1.11,-2.19 -1.62,-2.64 -3.24,-4.25 -2.9,-2.89 -17.02,-17.49 -19.26,-18.84 -1.63,-0.99 -3.63,-1.58 -5.69,-1.76l-2.49 0c-2.7,0.23 -5.32,1.2 -7.25,3.01l-9.93 9.94c-1.19,1.19 -4.48,3.74 -4.48,5.62z"/>
  </g>
 </g>
</svg>
